:FULLY-SPECIFIED
:FORCE-ALL-JOINTS-BE-3DOF
:DEGREES
1
root 6.24314 16.836 -28.1378 9.0217 -2.52979 -3.05774
lfemur -20.3712 2.30257 -19.9954
ltibia 35.927 0 0
lfoot -38.654 3.93715 0
ltoes 38.9541 0 0
rfemur -19.4747 0.22019 19.5256
rtibia 36.0342 0 0
rfoot -30.3779 -10.4967 0
rtoes 21.4483 0 0
lowerback -2.05144 3.66971 -5.03766
upperback -2.66728 5.00355 3.49279
thorax -2.36397 2.67023 6.42441
lowerneck -9.84699 -2.36864 1.94815
upperneck -1.37933 -3.32542 -1.65382
head 1.16433 -1.69823 -0.975663
lclavicle -1.65488e-14 -3.69739e-14 0
lhumerus -41.7253 -10.8128 99.8312
lradius 34.5094 0 0
lwrist 2.17521 0 0
lhand -10.5949 9.65639 0
lfingers 7.12502 0 0
lthumb 15.4107 39.062 0
rclavicle -1.65488e-14 -3.69739e-14 0
rhumerus -43.273 -4.86223 -84.2703
rradius 40.4763 0 0
rwrist 9.89469 0 0
rhand -23.7965 -22.476 0
rfingers 7.12502 0 0
rthumb 2.67393 -52.439 0
2
root 6.24258 16.8361 -28.1377 9.02369 -2.52818 -3.05589
lfemur -20.3711 2.30091 -19.9951
ltibia 35.9233 0 0
lfoot -38.6481 3.93779 0
ltoes 38.9475 0 0
rfemur -19.4702 0.23119 19.5255
rtibia 36.0243 0 0
rfoot -30.3721 -10.5113 0
rtoes 21.4304 0 0
lowerback -2.05794 3.66733 -5.0292
upperback -2.66565 5.0002 3.48695
thorax -2.35734 2.66826 6.41402
lowerneck -9.84638 -2.36715 1.94992
upperneck -1.38213 -3.32365 -1.64881
head 1.16339 -1.69729 -0.974294
lclavicle -1.6472e-14 -3.68894e-14 0
lhumerus -41.7247 -10.8168 99.8253
lradius 34.5195 0 0
lwrist 2.18304 0 0
lhand -10.5972 9.64553 0
lfingers 7.12502 0 0
lthumb 15.4085 39.0513 0
rclavicle -1.6472e-14 -3.68894e-14 0
rhumerus -43.2676 -4.86259 -84.2799
rradius 40.4735 0 0
rwrist 9.89662 0 0
rhand -23.8016 -22.4722 0
rfingers 7.12502 0 0
rthumb 2.66896 -52.4352 0
3
root 6.24095 16.8364 -28.1374 9.02954 -2.52344 -3.05046
lfemur -20.3709 2.29603 -19.9941
ltibia 35.9124 0 0
lfoot -38.6308 3.93967 0
ltoes 38.9281 0 0
rfemur -19.4568 0.263463 19.5252
rtibia 35.9953 0 0
rfoot -30.3551 -10.5543 0
rtoes 21.3778 0 0
lowerback -2.07703 3.66035 -5.00439
upperback -2.66087 4.99036 3.46981
thorax -2.33789 2.66246 6.38352
lowerneck -9.84457 -2.3628 1.95511
upperneck -1.39033 -3.31847 -1.6341
head 1.16064 -1.69453 -0.970277
lclavicle -1.62468e-14 -3.66417e-14 0
lhumerus -41.7231 -10.8285 99.8079
lradius 34.5492 0 0
lwrist 2.206 0 0
lhand -10.6041 9.61365 0
lfingers 7.12502 0 0
lthumb 15.4019 39.0199 0
rclavicle -1.62468e-14 -3.66417e-14 0
rhumerus -43.2518 -4.86363 -84.3079
rradius 40.4654 0 0
rwrist 9.90228 0 0
rhand -23.8167 -22.4609 0
rfingers 7.12502 0 0
rthumb 2.65438 -52.424 0
4
root 6.2383 16.837 -28.137 9.03905 -2.51575 -3.04163
lfemur -20.3705 2.2881 -19.9925
ltibia 35.8947 0 0
lfoot -38.6027 3.94272 0
ltoes 38.8965 0 0
rfemur -19.4352 0.315918 19.5248
rtibia 35.9481 0 0
rfoot -30.3274 -10.6241 0
rtoes 21.2923 0 0
lowerback -2.10805 3.64901 -4.96405
upperback -2.65311 4.97436 3.44195
thorax -2.30627 2.65304 6.33396
lowerneck -9.84164 -2.35571 1.96355
upperneck -1.40366 -3.31005 -1.6102
head 1.15618 -1.69005 -0.963747
lclavicle -1.58808e-14 -3.62389e-14 0
lhumerus -41.7204 -10.8476 99.7796
lradius 34.5973 0 0
lwrist 2.24333 0 0
lhand -10.6152 9.56185 0
lfingers 7.12502 0 0
lthumb 15.3912 38.9689 0
rclavicle -1.58808e-14 -3.62389e-14 0
rhumerus -43.226 -4.86534 -84.3536
rradius 40.4521 0 0
rwrist 9.91148 0 0
rhand -23.8413 -22.4426 0
rfingers 7.12502 0 0
rthumb 2.63069 -52.4058 0
5
root 6.23469 16.8377 -28.1363 9.05202 -2.50525 -3.02959
lfemur -20.37 2.27728 -19.9903
ltibia 35.8705 0 0
lfoot -38.5644 3.94688 0
ltoes 38.8534 0 0
rfemur -19.4057 0.387464 19.5242
rtibia 35.8837 0 0
rfoot -30.2897 -10.7193 0
rtoes 21.1756 0 0
lowerback -2.15035 3.63354 -4.90904
upperback -2.64252 4.95255 3.40396
thorax -2.26315 2.6402 6.26636
lowerneck -9.83765 -2.34605 1.97505
upperneck -1.42185 -3.29856 -1.5776
head 1.15008 -1.68394 -0.954841
lclavicle -1.53816e-14 -3.56896e-14 0
lhumerus -41.7167 -10.8736 99.7411
lradius 34.6631 0 0
lwrist 2.29425 0 0
lhand -10.6303 9.49119 0
lfingers 7.12502 0 0
lthumb 15.3766 38.8993 0
rclavicle -1.53816e-14 -3.56896e-14 0
rhumerus -43.1909 -4.86766 -84.4158
rradius 40.434 0 0
rwrist 9.92404 0 0
rhand -23.8747 -22.4176 0
rfingers 7.12502 0 0
rthumb 2.59837 -52.381 0
6
root 6.23017 16.8386 -28.1356 9.06826 -2.49211 -3.01451
lfemur -20.3694 2.26374 -19.9876
ltibia 35.8403 0 0
lfoot -38.5164 3.95209 0
ltoes 38.7995 0 0
rfemur -19.3688 0.47701 19.5235
rtibia 35.8031 0 0
rfoot -30.2425 -10.8385 0
rtoes 21.0297 0 0
lowerback -2.20331 3.61417 -4.84018
upperback -2.62926 4.92524 3.35641
thorax -2.20919 2.62412 6.18176
lowerneck -9.83265 -2.33395 1.98945
upperneck -1.44461 -3.28417 -1.5368
head 1.14246 -1.67629 -0.943695
lclavicle -1.47568e-14 -3.50021e-14 0
lhumerus -41.7121 -10.9062 99.6929
lradius 34.7453 0 0
lwrist 2.35797 0 0
lhand -10.6493 9.40276 0
lfingers 7.12502 0 0
lthumb 15.3583 38.8122 0
rclavicle -1.47568e-14 -3.50021e-14 0
rhumerus -43.147 -4.87057 -84.4936
rradius 40.4114 0 0
rwrist 9.93975 0 0
rhand -23.9166 -22.3863 0
rfingers 7.12502 0 0
rthumb 2.55792 -52.35 0
7
root 6.22479 16.8397 -28.1346 9.08755 -2.4765 -2.9966
lfemur -20.3686 2.24764 -19.9843
ltibia 35.8043 0 0
lfoot -38.4593 3.95828 0
ltoes 38.7354 0 0
rfemur -19.3248 0.583465 19.5226
rtibia 35.7074 0 0
rfoot -30.1864 -10.9802 0
rtoes 20.8562 0 0
lowerback -2.26626 3.59115 -4.75832
upperback -2.6135 4.89279 3.29987
thorax -2.14502 2.60501 6.08118
lowerneck -9.8267 -2.31957 2.00658
upperneck -1.47167 -3.26708 -1.48829
head 1.13339 -1.66719 -0.930444
lclavicle -1.40139e-14 -3.41848e-14 0
lhumerus -41.7067 -10.9448 99.6355
lradius 34.8431 0 0
lwrist 2.43373 0 0
lhand -10.6719 9.29763 0
lfingers 7.12502 0 0
lthumb 15.3366 38.7087 0
rclavicle -1.40139e-14 -3.41848e-14 0
rhumerus -43.0947 -4.87402 -84.5862
rradius 40.3845 0 0
rwrist 9.95842 0 0
rhand -23.9664 -22.3492 0
rfingers 7.12502 0 0
rthumb 2.50984 -52.3131 0
8
root 6.21861 16.841 -28.1336 9.10972 -2.45856 -2.97602
lfemur -20.3678 2.22915 -19.9806
ltibia 35.763 0 0
lfoot -38.3938 3.96539 0
ltoes 38.6619 0 0
rfemur -19.2744 0.705738 19.5216
rtibia 35.5974 0 0
rfoot -30.1219 -11.1429 0
rtoes 20.6568 0 0
lowerback -2.33856 3.56471 -4.6643
upperback -2.5954 4.8555 3.23494
thorax -2.07133 2.58306 5.96565
lowerneck -9.81987 -2.30306 2.02624
upperneck -1.50274 -3.24744 -1.43257
head 1.12297 -1.65675 -0.915224
lclavicle -1.31607e-14 -3.3246e-14 0
lhumerus -41.7004 -10.9893 99.5697
lradius 34.9555 0 0
lwrist 2.52075 0 0
lhand -10.6978 9.17687 0
lfingers 7.12502 0 0
lthumb 15.3116 38.5897 0
rclavicle -1.31607e-14 -3.3246e-14 0
rhumerus -43.0347 -4.87799 -84.6926
rradius 40.3536 0 0
rwrist 9.97987 0 0
rhand -24.0236 -22.3065 0
rfingers 7.12502 0 0
rthumb 2.45461 -52.2708 0
9
root 6.21169 16.8424 -28.1324 9.13455 -2.43846 -2.95296
lfemur -20.3668 2.20844 -19.9764
ltibia 35.7168 0 0
lfoot -38.3204 3.97336 0
ltoes 38.5794 0 0
rfemur -19.2179 0.842739 19.5205
rtibia 35.4741 0 0
rfoot -30.0497 -11.3252 0
rtoes 20.4335 0 0
lowerback -2.41957 3.53508 -4.55895
upperback -2.57512 4.81373 3.16219
thorax -1.98876 2.55846 5.83621
lowerneck -9.81222 -2.28455 2.04828
upperneck -1.53757 -3.22544 -1.37014
head 1.1113 -1.64504 -0.89817
lclavicle -1.22048e-14 -3.21941e-14 0
lhumerus -41.6934 -11.0391 99.4959
lradius 35.0813 0 0
lwrist 2.61824 0 0
lhand -10.7268 9.04158 0
lfingers 7.12502 0 0
lthumb 15.2836 38.4565 0
rclavicle -1.22048e-14 -3.21941e-14 0
rhumerus -42.9675 -4.88244 -84.8117
rradius 40.319 0 0
rwrist 10.0039 0 0
rhand -24.0877 -22.2586 0
rfingers 7.12502 0 0
rthumb 2.39272 -52.2233 0
10
root 6.20408 16.844 -28.1311 9.16186 -2.41636 -2.92761
lfemur -20.3657 2.18566 -19.9718
ltibia 35.6659 0 0
lfoot -38.2396 3.98212 0
ltoes 38.4887 0 0
rfemur -19.1557 0.993376 19.5192
rtibia 35.3386 0 0
rfoot -29.9703 -11.5257 0
rtoes 20.188 0 0
lowerback -2.50865 3.5025 -4.44312
upperback -2.55282 4.7678 3.08219
thorax -1.89797 2.53142 5.69388
lowerneck -9.80381 -2.26421 2.0725
upperneck -1.57585 -3.20125 -1.3015
head 1.09847 -1.63218 -0.87942
lclavicle -1.11536e-14 -3.10375e-14 0
lhumerus -41.6857 -11.0938 99.4148
lradius 35.2197 0 0
lwrist 2.72544 0 0
lhand -10.7587 8.89281 0
lfingers 7.12502 0 0
lthumb 15.2529 38.31 0
rclavicle -1.11536e-14 -3.10375e-14 0
rhumerus -42.8935 -4.88733 -84.9427
rradius 40.281 0 0
rwrist 10.0303 0 0
rhand -24.1581 -22.2061 0
rfingers 7.12502 0 0
rthumb 2.32468 -52.1711 0
11
root 6.19584 16.8456 -28.1296 9.19144 -2.39242 -2.90014
lfemur -20.3646 2.16098 -19.9669
ltibia 35.6108 0 0
lfoot -38.1522 3.99161 0
ltoes 38.3905 0 0
rfemur -19.0884 1.15656 19.5179
rtibia 35.1918 0 0
rfoot -29.8842 -11.7429 0
rtoes 19.922 0 0
lowerback -2.60514 3.46721 -4.31764
upperback -2.52866 4.71805 2.99553
thorax -1.79962 2.50212 5.5397
lowerneck -9.79469 -2.24217 2.09875
upperneck -1.61733 -3.17504 -1.22715
head 1.08458 -1.61823 -0.859107
lclavicle -1.0015e-14 -2.97847e-14 0
lhumerus -41.6773 -11.1532 99.3269
lradius 35.3696 0 0
lwrist 2.84157 0 0
lhand -10.7933 8.73166 0
lfingers 7.12502 0 0
lthumb 15.2196 38.1513 0
rclavicle -1.0015e-14 -2.97847e-14 0
rhumerus -42.8134 -4.89262 -85.0846
rradius 40.2398 0 0
rwrist 10.059 0 0
rhand -24.2344 -22.1491 0
rfingers 7.12502 0 0
rthumb 2.25097 -52.1146 0
12
root 6.18702 16.8474 -28.1281 9.2231 -2.3668 -2.87075
lfemur -20.3633 2.13458 -19.9615
ltibia 35.5518 0 0
lfoot -38.0586 4.00176 0
ltoes 38.2854 0 0
rfemur -19.0164 1.3312 19.5165
rtibia 35.0347 0 0
rfoot -29.7922 -11.9753 0
rtoes 19.6373 0 0
lowerback -2.70841 3.42944 -4.18336
upperback -2.50281 4.6648 2.90279
thorax -1.69437 2.47077 5.3747
lowerneck -9.78494 -2.21858 2.12683
upperneck -1.66172 -3.14699 -1.14757
head 1.0697 -1.60331 -0.837369
lclavicle -8.79638e-15 -2.84438e-14 0
lhumerus -41.6683 -11.2166 99.2328
lradius 35.53 0 0
lwrist 2.96585 0 0
lhand -10.8303 8.55919 0
lfingers 7.12502 0 0
lthumb 15.184 37.9814 0
rclavicle -8.79638e-15 -2.84438e-14 0
rhumerus -42.7277 -4.89829 -85.2365
rradius 40.1957 0 0
rwrist 10.0896 0 0
rhand -24.3161 -22.0881 0
rfingers 7.12502 0 0
rthumb 2.17208 -52.0541 0
